<svg xmlns="http://www.w3.org/2000/svg" viewBox="0 0 512 512"><rect width="512" height="512" rx="112" fill="#2B3990"/><path d="M158.4 343.2 L158.4 212.5 L107.3 212.5 L107.3 176.2 L251.7 176.2 L251.7 212.5 L200.6 212.5 L200.6 343.2 Z M270.7 343.2 L270.7 176.2 L346.6 176.2 L354.1 176.6 L361.1 177.6 L367.6 179.4 L373.5 181.9 L378.9 185.1 L383.6 188.8 L387.7 193 L391.1 197.7 L393.8 202.9 L395.7 208.4 L396.8 214.2 L397.2 220.2 L396.8 225.8 L395.9 230.9 L394.2 235.7 L392 240.2 L389.2 244.2 L385.7 247.9 L381.6 251.2 L377 254.1 L382.9 257.5 L388 261.3 L392.3 265.6 L395.9 270.4 L398.6 275.7 L400.6 281.5 L401.8 287.7 L402.1 294.4 L401.7 301.3 L400.4 307.8 L398.2 313.8 L395.1 319.5 L391.2 324.7 L386.6 329.3 L381.2 333.4 L375.2 336.8 L368.5 339.6 L361.2 341.6 L353.4 342.8 L344.9 343.2 Z M336.5 207.5 L312.2 207.5 L312.2 241.4 L336.5 241.4 L340.4 241.2 L344 240.4 L347.1 239.1 L350 237.3 L352.3 235 L354 232.1 L354.9 228.6 L355.3 224.5 L354.9 220.5 L354 217.1 L352.3 214.1 L350 211.8 L347.1 209.9 L344 208.6 L340.4 207.8 L336.5 207.5 Z M339 271.8 L312.2 271.8 L312.2 311.9 L339 311.9 L343.7 311.5 L347.9 310.5 L351.6 308.7 L354.7 306.3 L357.2 303.3 L359 299.9 L360.1 296.1 L360.5 291.8 L360.1 287.5 L359 283.7 L357.2 280.3 L354.7 277.4 L351.6 274.9 L347.9 273.2 L343.7 272.1 L339 271.8 Z" fill="#ffffff" fill-rule="evenodd"/></svg>